<svg width="418" height="65" viewBox="0 0 418 65" fill="none" xmlns="http://www.w3.org/2000/svg">
<path d="M0.522 48V1.488H18.8038C21.7539 1.488 24.2302 2.09093 26.2328 3.2968C28.2354 4.50267 29.7427 6.06383 30.7548 7.9803C31.7669 9.87523 32.2729 11.8778 32.2729 13.9881C32.2729 16.5506 31.6377 18.747 30.3672 20.5773C29.1183 22.4076 27.4279 23.6566 25.2961 24.3241L25.2315 22.7414C28.2031 23.4735 30.4856 24.9055 32.0791 27.0373C33.6726 29.1476 34.4693 31.6131 34.4693 34.434C34.4693 37.1687 33.9202 39.5482 32.822 41.5723C31.7453 43.5964 30.1626 45.1791 28.0739 46.3204C26.0067 47.4401 23.4981 48 20.548 48H0.522ZM7.3696 41.5723H19.5144C21.0433 41.5723 22.4106 41.2816 23.6165 40.7002C24.8439 40.1188 25.8021 39.2898 26.4912 38.2131C27.2018 37.1149 27.5571 35.8121 27.5571 34.3048C27.5571 32.9051 27.2449 31.6454 26.6204 30.5257C26.0175 29.3844 25.1346 28.4908 23.9718 27.8448C22.8305 27.1773 21.4847 26.8435 19.9343 26.8435H7.3696V41.5723ZM7.3696 20.4804H18.7069C19.9558 20.4804 21.0756 20.2328 22.0661 19.7375C23.0782 19.2207 23.8749 18.4886 24.4563 17.5411C25.0592 16.5721 25.3607 15.4093 25.3607 14.0527C25.3607 12.2439 24.7578 10.7581 23.5519 9.5953C22.346 8.4325 20.731 7.8511 18.7069 7.8511H7.3696V20.4804ZM41.543 48V0.519H48.2937V48H41.543ZM73.465 48.969C69.9981 48.969 66.9512 48.2153 64.3241 46.708C61.7186 45.1791 59.6837 43.0581 58.2194 40.3449C56.7767 37.6102 56.0553 34.4448 56.0553 30.8487C56.0553 27.0373 56.7659 23.7319 58.1871 20.9326C59.6298 18.1333 61.6324 15.9692 64.1949 14.4403C66.7574 12.9114 69.7397 12.147 73.142 12.147C76.695 12.147 79.7204 12.976 82.2183 14.6341C84.7162 16.2706 86.5788 18.607 87.8062 21.6432C89.0551 24.6794 89.5504 28.2862 89.292 32.4637H82.5413V30.0089C82.4982 25.9606 81.723 22.9675 80.2157 21.0295C78.7299 19.0915 76.4581 18.1225 73.4004 18.1225C70.0197 18.1225 67.4787 19.1884 65.7776 21.3202C64.0765 23.452 63.2259 26.5313 63.2259 30.558C63.2259 34.3909 64.0765 37.3625 65.7776 39.4728C67.4787 41.5615 69.9335 42.6059 73.142 42.6059C75.2523 42.6059 77.0718 42.1322 78.6007 41.1847C80.1511 40.2157 81.357 38.8376 82.2183 37.0503L88.8398 39.1498C87.4832 42.2721 85.4268 44.6946 82.6705 46.4173C79.9142 48.1184 76.8457 48.969 73.465 48.969ZM61.0295 32.4637V27.1988H85.9328V32.4637H61.0295ZM109.879 48.9367C105.637 48.9367 102.181 48 99.5104 46.1266C96.8403 44.2532 95.2037 41.6154 94.6008 38.2131L101.513 37.1472C101.944 38.956 102.934 40.388 104.485 41.4431C106.057 42.4767 108.005 42.9935 110.331 42.9935C112.441 42.9935 114.088 42.5628 115.273 41.7015C116.479 40.8402 117.082 39.6558 117.082 38.1485C117.082 37.2656 116.866 36.555 116.436 36.0167C116.026 35.4568 115.154 34.9293 113.819 34.434C112.484 33.9387 110.449 33.325 107.715 32.5929C104.721 31.8177 102.342 30.9887 100.576 30.1058C98.8321 29.2014 97.5832 28.157 96.8295 26.9727C96.0974 25.7668 95.7313 24.3133 95.7313 22.6122C95.7313 20.5019 96.2912 18.6608 97.4109 17.0889C98.5306 15.517 100.103 14.3003 102.127 13.439C104.172 12.5777 106.563 12.147 109.297 12.147C111.967 12.147 114.347 12.5669 116.436 13.4067C118.524 14.2465 120.215 15.4416 121.507 16.992C122.799 18.5209 123.574 20.3189 123.832 22.3861L116.92 23.6458C116.683 21.9662 115.897 20.6419 114.562 19.6729C113.227 18.7039 111.494 18.1763 109.362 18.0902C107.316 18.0041 105.658 18.3486 104.388 19.1238C103.117 19.8775 102.482 20.9218 102.482 22.2569C102.482 23.0321 102.719 23.6889 103.193 24.2272C103.688 24.7655 104.635 25.2823 106.035 25.7776C107.435 26.2729 109.502 26.865 112.237 27.5541C115.165 28.3078 117.491 29.1476 119.213 30.0735C120.936 30.9779 122.163 32.0653 122.896 33.3358C123.649 34.5847 124.026 36.1028 124.026 37.8901C124.026 41.3354 122.766 44.0379 120.247 45.9974C117.749 47.9569 114.293 48.9367 109.879 48.9367ZM144.513 48.9367C140.271 48.9367 136.815 48 134.145 46.1266C131.474 44.2532 129.838 41.6154 129.235 38.2131L136.147 37.1472C136.578 38.956 137.568 40.388 139.119 41.4431C140.691 42.4767 142.639 42.9935 144.965 42.9935C147.075 42.9935 148.723 42.5628 149.907 41.7015C151.113 40.8402 151.716 39.6558 151.716 38.1485C151.716 37.2656 151.5 36.555 151.07 36.0167C150.661 35.4568 149.789 34.9293 148.453 34.434C147.118 33.9387 145.084 33.325 142.349 32.5929C139.356 31.8177 136.976 30.9887 135.21 30.1058C133.466 29.2014 132.217 28.157 131.464 26.9727C130.732 25.7668 130.365 24.3133 130.365 22.6122C130.365 20.5019 130.925 18.6608 132.045 17.0889C133.165 15.517 134.737 14.3003 136.761 13.439C138.807 12.5777 141.197 12.147 143.931 12.147C146.602 12.147 148.981 12.5669 151.07 13.4067C153.159 14.2465 154.849 15.4416 156.141 16.992C157.433 18.5209 158.208 20.3189 158.466 22.3861L151.554 23.6458C151.317 21.9662 150.531 20.6419 149.196 19.6729C147.861 18.7039 146.128 18.1763 143.996 18.0902C141.95 18.0041 140.292 18.3486 139.022 19.1238C137.751 19.8775 137.116 20.9218 137.116 22.2569C137.116 23.0321 137.353 23.6889 137.827 24.2272C138.322 24.7655 139.27 25.2823 140.669 25.7776C142.069 26.2729 144.136 26.865 146.871 27.5541C149.799 28.3078 152.125 29.1476 153.848 30.0735C155.57 30.9779 156.798 32.0653 157.53 33.3358C158.283 34.5847 158.66 36.1028 158.66 37.8901C158.66 41.3354 157.401 44.0379 154.881 45.9974C152.383 47.9569 148.927 48.9367 144.513 48.9367ZM166.453 7.3989V0.842H173.204V7.3989H166.453ZM166.453 48V13.116H173.204V48H166.453ZM207.387 48V30.8487C207.387 29.4921 207.268 28.1032 207.032 26.682C206.816 25.2393 206.386 23.9042 205.74 22.6768C205.115 21.4494 204.221 20.4589 203.059 19.7052C201.917 18.9515 200.421 18.5747 198.569 18.5747C197.363 18.5747 196.222 18.7793 195.145 19.1884C194.068 19.576 193.121 20.2112 192.303 21.0941C191.506 21.977 190.871 23.1398 190.397 24.5825C189.945 26.0252 189.719 27.7802 189.719 29.8474L185.52 28.2647C185.52 25.0993 186.112 22.3107 187.296 19.899C188.481 17.4657 190.182 15.5708 192.4 14.2142C194.618 12.8576 197.298 12.1793 200.442 12.1793C202.854 12.1793 204.878 12.5669 206.515 13.3421C208.151 14.1173 209.476 15.1401 210.488 16.4106C211.521 17.6595 212.307 19.0269 212.846 20.5127C213.384 21.9985 213.75 23.452 213.944 24.8732C214.138 26.2944 214.234 27.5433 214.234 28.62V48H207.387ZM182.871 48V13.116H188.911V23.1936H189.719V48H182.871ZM237.021 64.473C235.148 64.473 233.328 64.1823 231.562 63.6009C229.818 63.0195 228.225 62.1582 226.782 61.0169C225.339 59.8972 224.144 58.5083 223.197 56.8502L229.431 53.6848C230.184 55.1706 231.261 56.258 232.661 56.9471C234.06 57.6362 235.535 57.9807 237.086 57.9807C239.002 57.9807 240.639 57.6362 241.995 56.9471C243.352 56.2796 244.375 55.2675 245.064 53.9109C245.774 52.5543 246.119 50.8747 246.097 48.8721V39.1175H246.905V13.116H252.88V48.9367C252.88 49.8626 252.848 50.7455 252.783 51.5853C252.719 52.4251 252.6 53.2649 252.428 54.1047C251.933 56.4518 250.985 58.3898 249.586 59.9187C248.208 61.4476 246.442 62.5888 244.289 63.3425C242.157 64.0962 239.734 64.473 237.021 64.473ZM236.504 48.969C233.253 48.969 230.443 48.1615 228.074 46.5465C225.727 44.9315 223.907 42.7351 222.615 39.9573C221.345 37.158 220.71 34.0141 220.71 30.5257C220.71 27.0158 221.356 23.8827 222.648 21.1264C223.94 18.3486 225.77 16.163 228.139 14.5695C230.529 12.9545 233.36 12.147 236.633 12.147C239.928 12.147 242.695 12.9545 244.935 14.5695C247.196 16.163 248.897 18.3486 250.038 21.1264C251.201 23.9042 251.782 27.0373 251.782 30.5257C251.782 34.0141 251.201 37.1472 250.038 39.925C248.875 42.7028 247.163 44.91 244.902 46.5465C242.641 48.1615 239.842 48.969 236.504 48.969ZM237.441 42.8643C239.659 42.8643 241.468 42.3367 242.867 41.2816C244.267 40.2265 245.29 38.773 245.936 36.9211C246.582 35.0692 246.905 32.9374 246.905 30.5257C246.905 28.114 246.571 25.9822 245.904 24.1303C245.258 22.2784 244.246 20.8357 242.867 19.8021C241.511 18.7685 239.777 18.2517 237.667 18.2517C235.428 18.2517 233.587 18.8008 232.144 19.899C230.701 20.9972 229.624 22.4722 228.914 24.3241C228.225 26.176 227.88 28.2432 227.88 30.5257C227.88 32.8298 228.225 34.9185 228.914 36.7919C229.624 38.6438 230.68 40.1188 232.079 41.217C233.5 42.3152 235.288 42.8643 237.441 42.8643ZM271.653 48L286.769 1.488H296.491L311.608 48H304.599L290.677 5.5578H292.422L278.662 48H271.653ZM279.502 37.5025V31.1717H303.791V37.5025H279.502ZM318.049 48V0.519H324.799V48H318.049ZM344.35 48.969C341.766 48.969 339.602 48.4953 337.858 47.5478C336.114 46.5788 334.79 45.3083 333.885 43.7364C333.002 42.1429 332.561 40.3987 332.561 38.5038C332.561 36.7381 332.873 35.1877 333.498 33.8526C334.122 32.5175 335.048 31.387 336.275 30.4611C337.503 29.5136 339.01 28.7492 340.797 28.1678C342.348 27.7156 344.103 27.3172 346.062 26.9727C348.022 26.6282 350.078 26.3052 352.232 26.0037C354.407 25.7022 356.56 25.4008 358.692 25.0993L356.237 26.4559C356.28 23.7212 355.699 21.697 354.493 20.3835C353.308 19.0484 351.263 18.3809 348.356 18.3809C346.525 18.3809 344.846 18.8116 343.317 19.6729C341.788 20.5127 340.722 21.9124 340.119 23.8719L333.821 21.9339C334.682 18.9408 336.319 16.5613 338.73 14.7956C341.164 13.0299 344.394 12.147 348.42 12.147C351.543 12.147 354.256 12.6853 356.56 13.762C358.885 14.8171 360.587 16.4967 361.663 18.8008C362.223 19.9421 362.568 21.1479 362.697 22.4184C362.826 23.6889 362.891 25.0562 362.891 26.5205V48H356.915V40.0219L358.078 41.0555C356.635 43.7256 354.794 45.7175 352.555 47.031C350.337 48.323 347.602 48.969 344.35 48.969ZM345.546 43.4457C347.462 43.4457 349.109 43.1119 350.487 42.4444C351.866 41.7553 352.975 40.8832 353.814 39.8281C354.654 38.773 355.203 37.6748 355.462 36.5335C355.828 35.4999 356.032 34.3371 356.075 33.0451C356.14 31.7531 356.172 30.7195 356.172 29.9443L358.369 30.7518C356.237 31.0748 354.299 31.3655 352.555 31.6239C350.81 31.8823 349.228 32.1407 347.807 32.3991C346.407 32.636 345.158 32.9267 344.06 33.2712C343.134 33.5942 342.305 33.9818 341.573 34.434C340.862 34.8862 340.291 35.4353 339.861 36.0813C339.452 36.7273 339.247 37.5133 339.247 38.4392C339.247 39.3436 339.473 40.1834 339.925 40.9586C340.378 41.7123 341.067 42.3152 341.993 42.7674C342.918 43.2196 344.103 43.4457 345.546 43.4457ZM387.654 48.969C384.316 48.969 381.517 48.1615 379.256 46.5465C376.995 44.91 375.283 42.7028 374.12 39.925C372.958 37.1472 372.376 34.0141 372.376 30.5257C372.376 27.0373 372.947 23.9042 374.088 21.1264C375.251 18.3486 376.952 16.163 379.192 14.5695C381.453 12.9545 384.23 12.147 387.525 12.147C390.798 12.147 393.619 12.9545 395.988 14.5695C398.378 16.163 400.219 18.3486 401.511 21.1264C402.803 23.8827 403.449 27.0158 403.449 30.5257C403.449 34.0141 402.803 37.158 401.511 39.9573C400.24 42.7351 398.421 44.9315 396.052 46.5465C393.705 48.1615 390.906 48.969 387.654 48.969ZM371.246 48V1.488H378.029V22.9029H377.254V48H371.246ZM386.717 42.8643C388.871 42.8643 390.647 42.3152 392.047 41.217C393.468 40.1188 394.523 38.6438 395.212 36.7919C395.923 34.9185 396.278 32.8298 396.278 30.5257C396.278 28.2432 395.923 26.176 395.212 24.3241C394.523 22.4722 393.457 20.9972 392.015 19.899C390.572 18.8008 388.731 18.2517 386.491 18.2517C384.381 18.2517 382.637 18.7685 381.259 19.8021C379.902 20.8357 378.89 22.2784 378.223 24.1303C377.577 25.9822 377.254 28.114 377.254 30.5257C377.254 32.9374 377.577 35.0692 378.223 36.9211C378.869 38.773 379.891 40.2265 381.291 41.2816C382.691 42.3367 384.5 42.8643 386.717 42.8643ZM411.227 7.3989V0.842H417.977V7.3989H411.227ZM411.227 48V13.116H417.977V48H411.227Z" fill="white"/>
</svg>
