<svg width="507" height="72" viewBox="0 0 507 72" fill="none" xmlns="http://www.w3.org/2000/svg">
<g filter="url(#filter0_d_33_6)">
<path d="M45.1789 35.6164C45.1789 37.8875 44.7163 39.9168 43.791 41.7042C42.8868 43.4916 41.6356 44.9742 40.0374 46.1518C38.1869 47.5396 36.1471 48.528 33.9181 49.1168C31.7101 49.7056 28.9027 50 25.4961 50H4.99316V3.03252H23.225C27.0102 3.03252 29.7754 3.15869 31.5208 3.41104C33.2872 3.66338 35.0326 4.22064 36.7569 5.08281C38.5444 5.98705 39.8692 7.20671 40.7313 8.7418C41.6145 10.2559 42.0562 11.9907 42.0562 13.9464C42.0562 16.2175 41.4568 18.2257 40.2582 19.9711C39.0596 21.6954 37.3668 23.0413 35.1798 24.0086V24.2609C38.25 24.8708 40.6788 26.1325 42.4662 28.0461C44.2747 29.9597 45.1789 32.4831 45.1789 35.6164ZM29.6598 16.3121C29.6598 15.5341 29.46 14.756 29.0604 13.9779C28.6819 13.1999 27.9985 12.6216 27.0102 12.2431C26.127 11.9066 25.0229 11.7279 23.6981 11.7068C22.3944 11.6648 20.5544 11.6438 18.1781 11.6438H17.0426V21.5798H18.9352C20.8488 21.5798 22.4785 21.5482 23.8243 21.4852C25.1701 21.4221 26.2321 21.2118 27.0102 20.8543C28.1036 20.3706 28.8186 19.7503 29.1551 18.9933C29.4915 18.2152 29.6598 17.3215 29.6598 16.3121ZM32.6248 35.4271C32.6248 33.9341 32.3304 32.7881 31.7416 31.989C31.1738 31.1688 30.196 30.559 28.8081 30.1595C27.8618 29.8861 26.558 29.7389 24.8968 29.7179C23.2355 29.6968 21.5007 29.6863 19.6922 29.6863H17.0426V41.3888H17.9258C21.3324 41.3888 23.7717 41.3783 25.2437 41.3572C26.7158 41.3362 28.0721 41.0628 29.3128 40.5371C30.5745 40.0114 31.4367 39.3174 31.8993 38.4553C32.383 37.5721 32.6248 36.5627 32.6248 35.4271ZM64.9248 50H53.5693V0.919142H64.9248V50ZM110.536 34.3862H84.5445C84.7128 37.162 85.7642 39.2859 87.6988 40.7579C89.6545 42.2299 92.5249 42.9659 96.3101 42.9659C98.7073 42.9659 101.031 42.5348 103.281 41.6727C105.531 40.8105 107.308 39.8852 108.612 38.8969H109.874V48.0128C107.308 49.0432 104.89 49.7897 102.619 50.2523C100.348 50.715 97.8346 50.9463 95.0799 50.9463C87.9722 50.9463 82.5258 49.3481 78.7406 46.1518C74.9555 42.9554 73.0629 38.4027 73.0629 32.4937C73.0629 26.6477 74.8503 22.0214 78.4252 18.6147C82.0211 15.1871 86.9418 13.4732 93.1873 13.4732C98.9492 13.4732 103.281 14.9347 106.183 17.8577C109.085 20.7597 110.536 24.9444 110.536 30.4118V34.3862ZM99.2436 27.7307C99.1805 25.3544 98.5917 23.567 97.4771 22.3684C96.3626 21.1697 94.6278 20.5704 92.2726 20.5704C90.0856 20.5704 88.2876 21.1382 86.8787 22.2737C85.4698 23.4093 84.6812 25.2283 84.513 27.7307H99.2436ZM149.334 38.7707C149.334 42.4297 147.694 45.3842 144.413 47.6343C141.133 49.8633 136.643 50.9778 130.944 50.9778C127.79 50.9778 124.93 50.6834 122.365 50.0946C119.799 49.5058 117.738 48.8539 116.182 48.139V38.8022H117.223C117.791 39.2018 118.443 39.6434 119.179 40.1271C119.936 40.5897 120.998 41.0944 122.365 41.6411C123.542 42.1248 124.877 42.5453 126.371 42.9028C127.864 43.2393 129.462 43.4075 131.165 43.4075C133.394 43.4075 135.045 43.1657 136.117 42.682C137.19 42.1773 137.726 41.4413 137.726 40.474C137.726 39.6118 137.411 38.9915 136.78 38.613C136.149 38.2134 134.95 37.8349 133.184 37.4774C132.343 37.2882 131.197 37.0884 129.746 36.8781C128.316 36.6468 127.012 36.3734 125.834 36.058C122.617 35.2169 120.23 33.9131 118.674 32.1467C117.118 30.3592 116.34 28.1407 116.34 25.4911C116.34 22.0845 117.949 19.2561 121.166 17.0061C124.404 14.735 128.82 13.5994 134.414 13.5994C137.064 13.5994 139.598 13.8728 142.016 14.4195C144.455 14.9452 146.358 15.513 147.725 16.1229V25.0811H146.747C145.065 23.9245 143.141 22.9887 140.975 22.2737C138.83 21.5377 136.654 21.1697 134.446 21.1697C132.616 21.1697 131.07 21.4221 129.809 21.9268C128.568 22.4314 127.948 23.1464 127.948 24.0717C127.948 24.9128 128.232 25.5542 128.799 25.9958C129.367 26.4374 130.702 26.879 132.805 27.3206C133.962 27.5519 135.203 27.7832 136.527 28.0146C137.873 28.2248 139.219 28.4982 140.565 28.8347C143.551 29.6127 145.759 30.8429 147.189 32.5252C148.619 34.1865 149.334 36.2683 149.334 38.7707ZM187.69 38.7707C187.69 42.4297 186.05 45.3842 182.769 47.6343C179.489 49.8633 174.999 50.9778 169.3 50.9778C166.146 50.9778 163.286 50.6834 160.721 50.0946C158.155 49.5058 156.094 48.8539 154.538 48.139V38.8022H155.579C156.147 39.2018 156.799 39.6434 157.535 40.1271C158.292 40.5897 159.354 41.0944 160.721 41.6411C161.898 42.1248 163.234 42.5453 164.727 42.9028C166.22 43.2393 167.818 43.4075 169.521 43.4075C171.75 43.4075 173.401 43.1657 174.474 42.682C175.546 42.1773 176.082 41.4413 176.082 40.474C176.082 39.6118 175.767 38.9915 175.136 38.613C174.505 38.2134 173.306 37.8349 171.54 37.4774C170.699 37.2882 169.553 37.0884 168.102 36.8781C166.672 36.6468 165.368 36.3734 164.191 36.058C160.973 35.2169 158.586 33.9131 157.03 32.1467C155.474 30.3592 154.696 28.1407 154.696 25.4911C154.696 22.0845 156.305 19.2561 159.522 17.0061C162.761 14.735 167.177 13.5994 172.77 13.5994C175.42 13.5994 177.954 13.8728 180.372 14.4195C182.811 14.9452 184.714 15.513 186.081 16.1229V25.0811H185.104C183.421 23.9245 181.497 22.9887 179.331 22.2737C177.186 21.5377 175.01 21.1697 172.802 21.1697C170.972 21.1697 169.427 21.4221 168.165 21.9268C166.924 22.4314 166.304 23.1464 166.304 24.0717C166.304 24.9128 166.588 25.5542 167.156 25.9958C167.723 26.4374 169.059 26.879 171.162 27.3206C172.318 27.5519 173.559 27.7832 174.884 28.0146C176.229 28.2248 177.575 28.4982 178.921 28.8347C181.907 29.6127 184.115 30.8429 185.545 32.5252C186.975 34.1865 187.69 36.2683 187.69 38.7707ZM206.616 50H195.26V14.5772H206.616V50ZM206.931 9.53037H194.945V0.919142H206.931V9.53037ZM252.921 50H241.502V32.4306C241.502 31.0006 241.429 29.5812 241.282 28.1723C241.134 26.7423 240.882 25.6909 240.525 25.018C240.104 24.2399 239.484 23.6721 238.663 23.3146C237.864 22.9572 236.739 22.7784 235.288 22.7784C234.258 22.7784 233.207 22.9466 232.134 23.2831C231.083 23.6196 229.937 24.1558 228.696 24.8918V50H217.34V14.5772H228.696V18.4886C230.715 16.9114 232.649 15.7023 234.5 14.8611C236.371 14.02 238.443 13.5994 240.714 13.5994C244.541 13.5994 247.527 14.7139 249.672 16.943C251.838 19.172 252.921 22.505 252.921 26.9421V50ZM297.838 45.931C297.838 49.2535 297.365 52.0503 296.419 54.3214C295.472 56.5925 294.148 58.3694 292.444 59.6521C290.741 60.9559 288.68 61.8917 286.262 62.4595C283.865 63.0483 281.152 63.3427 278.124 63.3427C275.663 63.3427 273.235 63.1955 270.837 62.9011C268.461 62.6067 266.4 62.2492 264.655 61.8286V52.965H266.043C267.431 53.5118 269.123 54.006 271.121 54.4476C273.119 54.9102 274.906 55.1415 276.483 55.1415C278.586 55.1415 280.29 54.9417 281.593 54.5422C282.918 54.1637 283.928 53.6169 284.622 52.902C285.273 52.229 285.747 51.3669 286.041 50.3154C286.335 49.264 286.483 48.0023 286.483 46.5303V45.8679C285.116 46.9824 283.602 47.8656 281.94 48.5175C280.279 49.1694 278.429 49.4953 276.389 49.4953C271.426 49.4953 267.599 48.0023 264.907 45.0162C262.216 42.0301 260.87 37.488 260.87 31.3896C260.87 28.4667 261.28 25.9432 262.1 23.8193C262.92 21.6954 264.077 19.8449 265.57 18.2678C266.958 16.7958 268.661 15.6497 270.68 14.8296C272.719 14.0095 274.801 13.5994 276.925 13.5994C278.839 13.5994 280.574 13.8307 282.13 14.2934C283.707 14.735 285.137 15.3553 286.42 16.1544L286.83 14.5772H297.838V45.931ZM286.483 38.8338V22.7784C285.831 22.505 285.032 22.2948 284.085 22.1476C283.139 21.9793 282.287 21.8952 281.53 21.8952C278.544 21.8952 276.305 22.7574 274.812 24.4817C273.319 26.1851 272.572 28.5718 272.572 31.642C272.572 35.0486 273.203 37.4249 274.465 38.7707C275.747 40.1165 277.64 40.7895 280.142 40.7895C281.278 40.7895 282.393 40.6107 283.486 40.2532C284.58 39.8957 285.578 39.4226 286.483 38.8338ZM374.677 50H362.154L358.905 40.5056H341.494L338.245 50H326.037L343.386 3.03252H357.328L374.677 50ZM355.972 31.8943L350.199 15.0504L344.427 31.8943H355.972ZM392.152 50H380.796V0.919142H392.152V50ZM424.325 40.7579V33.3769C422.79 33.503 421.129 33.6818 419.342 33.9131C417.554 34.1234 416.198 34.3757 415.273 34.6701C414.137 35.0276 413.264 35.5533 412.654 36.2473C412.066 36.9202 411.771 37.8139 411.771 38.9284C411.771 39.6644 411.834 40.2637 411.961 40.7264C412.087 41.189 412.402 41.6306 412.907 42.0512C413.39 42.4717 413.969 42.7872 414.642 42.9975C415.315 43.1867 416.366 43.2813 417.796 43.2813C418.932 43.2813 420.078 43.05 421.234 42.5874C422.412 42.1248 423.442 41.5149 424.325 40.7579ZM424.325 46.2464C423.716 46.709 422.959 47.2663 422.054 47.9182C421.15 48.5701 420.298 49.0853 419.499 49.4638C418.385 49.9685 417.228 50.3365 416.03 50.5678C414.831 50.8201 413.517 50.9463 412.087 50.9463C408.722 50.9463 405.904 49.9054 403.633 47.8235C401.362 45.7417 400.227 43.0816 400.227 39.8432C400.227 37.2566 400.805 35.1433 401.961 33.503C403.118 31.8628 404.758 30.5695 406.882 29.6232C408.985 28.677 411.593 28.004 414.705 27.6045C417.817 27.2049 421.045 26.9105 424.388 26.7213V26.532C424.388 24.5764 423.589 23.2305 421.991 22.4945C420.393 21.7375 418.038 21.359 414.926 21.359C413.054 21.359 411.056 21.6954 408.932 22.3684C406.809 23.0202 405.284 23.5249 404.359 23.8824H403.318V15.3343C404.516 15.0188 406.462 14.6508 409.153 14.2303C411.866 13.7887 414.579 13.5679 417.291 13.5679C423.747 13.5679 428.405 14.5667 431.265 16.5645C434.146 18.5411 435.586 21.6534 435.586 25.9012V50H424.325V46.2464ZM482.995 31.7997C482.995 37.3723 481.45 41.9145 478.358 45.4263C475.288 48.9381 471.451 50.6939 466.845 50.6939C464.869 50.6939 463.134 50.4837 461.641 50.0631C460.148 49.6425 458.728 49.0327 457.382 48.2336L456.909 50H446.027V0.919142H457.382V18.2678C459.128 16.8799 460.905 15.7549 462.713 14.8927C464.543 14.0305 466.646 13.5994 469.022 13.5994C473.501 13.5994 476.95 15.2186 479.368 18.457C481.786 21.6744 482.995 26.122 482.995 31.7997ZM471.293 32.0205C471.293 28.8662 470.757 26.4374 469.684 24.7341C468.612 23.0308 466.698 22.1791 463.943 22.1791C462.871 22.1791 461.767 22.3473 460.631 22.6838C459.496 22.9992 458.413 23.4618 457.382 24.0717V41.8619C458.203 42.1563 458.981 42.3561 459.717 42.4612C460.453 42.5664 461.336 42.6189 462.366 42.6189C465.373 42.6189 467.613 41.7357 469.085 39.9693C470.557 38.2029 471.293 35.5533 471.293 32.0205ZM502.552 50H491.196V14.5772H502.552V50ZM502.867 9.53037H490.881V0.919142H502.867V9.53037Z" fill="white"/>
</g>
<defs>
<filter id="filter0_d_33_6" x="0.993164" y="0.919142" width="505.874" height="70.4235" filterUnits="userSpaceOnUse" color-interpolation-filters="sRGB">
<feFlood flood-opacity="0" result="BackgroundImageFix"/>
<feColorMatrix in="SourceAlpha" type="matrix" values="0 0 0 0 0 0 0 0 0 0 0 0 0 0 0 0 0 0 127 0" result="hardAlpha"/>
<feOffset dy="4"/>
<feGaussianBlur stdDeviation="2"/>
<feComposite in2="hardAlpha" operator="out"/>
<feColorMatrix type="matrix" values="0 0 0 0 0 0 0 0 0 0 0 0 0 0 0 0 0 0 0.25 0"/>
<feBlend mode="normal" in2="BackgroundImageFix" result="effect1_dropShadow_33_6"/>
<feBlend mode="normal" in="SourceGraphic" in2="effect1_dropShadow_33_6" result="shape"/>
</filter>
</defs>
</svg>
